<?xml version="1.0" encoding="iso-8859-1"?>
<!-- Generator: Adobe Illustrator 16.0.0, SVG Export Plug-In . SVG Version: 6.00 Build 0)  -->
<!DOCTYPE svg PUBLIC "-//W3C//DTD SVG 1.1//EN" "http://www.w3.org/Graphics/SVG/1.1/DTD/svg11.dtd">
<svg version="1.1" id="Capa_1" xmlns="http://www.w3.org/2000/svg" xmlns:xlink="http://www.w3.org/1999/xlink" x="0px" y="0px"
	 width="23.303px" height="23.303px" viewBox="0 0 23.303 23.303" style="enable-background:new 0 0 23.303 23.303;"
	 xml:space="preserve">
<g>
	<path fill="#FFFFFF" d="M18.037,13.062c-0.641-3.226,2.421-5.118,2.421-5.118s-1.193-1.726-3.198-2.17c-2.004-0.445-3.007,0.111-4.008,0.528
		C12.25,6.72,11.75,6.72,11.75,6.72c-1.446,0-2.503-1.531-5.258-0.834c-1.898,0.479-3.896,2.67-4.257,5.285
		c-0.361,2.616,0.418,5.954,1.92,8.541c1.502,2.589,3.032,3.562,4.118,3.59c1.086,0.027,2.17-0.778,3.477-0.974
		c1.308-0.194,2.113,0.474,3.396,0.835c1.278,0.36,1.726,0.026,3.198-1.226c1.476-1.252,2.812-4.843,2.812-4.843
		S18.678,16.29,18.037,13.062z"/>
	<path fill="#FFFFFF" d="M15.199,3.687C16.619,2.24,16.138,0,16.138,0s-1.994,0.35-3.33,1.74c-1.335,1.391-1.114,3.588-1.114,3.588
		S13.779,5.133,15.199,3.687z"/>
</g>
<g>
</g>
<g>
</g>
<g>
</g>
<g>
</g>
<g>
</g>
<g>
</g>
<g>
</g>
<g>
</g>
<g>
</g>
<g>
</g>
<g>
</g>
<g>
</g>
<g>
</g>
<g>
</g>
<g>
</g>
</svg>
