<?xml version="1.0" encoding="utf-8"?>
<!-- Generator: Adobe Illustrator 17.0.0, SVG Export Plug-In . SVG Version: 6.00 Build 0)  -->
<!DOCTYPE svg PUBLIC "-//W3C//DTD SVG 1.1//EN" "http://www.w3.org/Graphics/SVG/1.1/DTD/svg11.dtd">
<svg version="1.1" id="Слой_1" xmlns="http://www.w3.org/2000/svg" xmlns:xlink="http://www.w3.org/1999/xlink" x="0px" y="0px"
	 width="50px" height="50px" viewBox="0 0 50 50" enable-background="new 0 0 50 50" xml:space="preserve">
<path fill="#FFFFFF" d="M5.623-3.562h38.755"/>
<path d="M21.16,39.24"/>
<path d="M31.5,11.35"/>
<path stroke="#000000" stroke-miterlimit="10" d="M18.585,21.721"/>
<g>
	<g>
		<path fill="#FFFFFF" d="M27.37,7.225c-4.107,4.135-8.214,8.27-12.32,12.405c-4.547,4.579,2.522,11.651,7.071,7.071
			c4.107-4.135,8.214-8.27,12.32-12.405C38.988,9.717,31.918,2.645,27.37,7.225L27.37,7.225z"/>
	</g>
</g>
<g>
	<g>
		<path fill="#FFFFFF" d="M14.964,26.701c4.135,4.107,8.27,8.214,12.405,12.32c4.579,4.547,11.651-2.522,7.071-7.071
			c-4.135-4.107-8.27-8.214-12.405-12.32C17.457,15.083,10.384,22.152,14.964,26.701c4.135,4.107,8.27,8.214,12.405,12.32
			c4.579,4.547,11.651-2.522,7.071-7.071c-4.135-4.107-8.27-8.214-12.405-12.32C17.457,15.083,10.384,22.152,14.964,26.701z"/>
	</g>
</g>
</svg>
