<?xml version="1.0" encoding="utf-8"?>
<!-- Generator: Adobe Illustrator 17.0.0, SVG Export Plug-In . SVG Version: 6.00 Build 0)  -->
<!DOCTYPE svg PUBLIC "-//W3C//DTD SVG 1.1//EN" "http://www.w3.org/Graphics/SVG/1.1/DTD/svg11.dtd">
<svg version="1.1" id="Слой_1" xmlns="http://www.w3.org/2000/svg" xmlns:xlink="http://www.w3.org/1999/xlink" x="0px" y="0px"
	 width="50px" height="50px" viewBox="0 0 50 50" enable-background="new 0 0 50 50" xml:space="preserve">
<path d="M1.29,18.914"/>
<path d="M42.321,34.125"/>
<path fill="#FFFFFF" d="M5.623-3.562h38.755"/>
<path stroke="#000000" stroke-miterlimit="10" d="M27.062,7.125"/>
<g>
	<g>
		<path fill="#FFFFFF" d="M46.723,21.714C40.64,15.673,34.556,9.631,28.473,3.589c-4.579-4.547-11.651,2.522-7.071,7.071
			c6.083,6.042,12.167,12.083,18.25,18.125C44.231,33.333,51.303,26.263,46.723,21.714L46.723,21.714z"/>
	</g>
</g>
<g>
	<g>
		<path fill="#FFFFFF" d="M21.402,3.464C15.36,9.548,9.319,15.631,3.277,21.714c-4.547,4.579,2.522,11.651,7.071,7.071
			c6.042-6.083,12.083-12.167,18.125-18.25C33.02,5.957,25.951-1.116,21.402,3.464C15.36,9.548,9.319,15.631,3.277,21.714
			c-4.547,4.579,2.522,11.651,7.071,7.071c6.042-6.083,12.083-12.167,18.125-18.25C33.02,5.957,25.951-1.116,21.402,3.464z"/>
	</g>
</g>
<path stroke="#000000" stroke-miterlimit="10" d="M28.062,24.125"/>
<g>
	<g>
		<path fill="#FFFFFF" d="M46.723,39.714c-6.083-6.042-12.167-12.083-18.25-18.125c-4.579-4.547-11.651,2.522-7.071,7.071
			c6.083,6.042,12.167,12.083,18.25,18.125C44.231,51.333,51.303,44.263,46.723,39.714L46.723,39.714z"/>
	</g>
</g>
<g>
	<g>
		<path fill="#FFFFFF" d="M21.402,21.464C15.36,27.548,9.319,33.631,3.277,39.714c-4.547,4.579,2.522,11.651,7.071,7.071
			c6.042-6.083,12.083-12.167,18.125-18.25C33.02,23.957,25.951,16.884,21.402,21.464C15.36,27.548,9.319,33.631,3.277,39.714
			c-4.547,4.579,2.522,11.651,7.071,7.071c6.042-6.083,12.083-12.167,18.125-18.25C33.02,23.957,25.951,16.884,21.402,21.464z"/>
	</g>
</g>
</svg>
