<?xml version="1.0" encoding="utf-8"?>
<!-- Generator: Adobe Illustrator 17.0.0, SVG Export Plug-In . SVG Version: 6.00 Build 0)  -->
<!DOCTYPE svg PUBLIC "-//W3C//DTD SVG 1.1//EN" "http://www.w3.org/Graphics/SVG/1.1/DTD/svg11.dtd">
<svg version="1.1" id="Слой_1" xmlns="http://www.w3.org/2000/svg" xmlns:xlink="http://www.w3.org/1999/xlink" x="0px" y="0px"
	 width="50px" height="50px" viewBox="0 0 50 50" enable-background="new 0 0 50 50" xml:space="preserve">
<path d="M1.29,18.914"/>
<path d="M7.679,15"/>
<path fill="#FFFFFF" d="M5.623-3.562h38.755"/>
<path stroke="#000000" stroke-miterlimit="10" d="M22.938,34"/>
<g>
	<g>
		<path fill="#FFFFFF" d="M3.277,19.411c6.083,6.042,12.167,12.083,18.25,18.125c4.579,4.547,11.651-2.522,7.071-7.071
			c-6.083-6.042-12.167-12.083-18.25-18.125C5.769,7.792-1.303,14.862,3.277,19.411L3.277,19.411z"/>
	</g>
</g>
<g>
	<g>
		<path fill="#FFFFFF" d="M28.598,37.661c6.042-6.083,12.083-12.167,18.125-18.25c4.547-4.579-2.522-11.651-7.071-7.071
			c-6.042,6.083-12.083,12.167-18.125,18.25C16.98,35.168,24.049,42.241,28.598,37.661c6.042-6.083,12.083-12.167,18.125-18.25
			c4.547-4.579-2.522-11.651-7.071-7.071c-6.042,6.083-12.083,12.167-18.125,18.25C16.98,35.168,24.049,42.241,28.598,37.661z"/>
	</g>
</g>
</svg>
