<?xml version="1.0" encoding="utf-8"?>
<!-- Generator: Adobe Illustrator 17.0.0, SVG Export Plug-In . SVG Version: 6.00 Build 0)  -->
<!DOCTYPE svg PUBLIC "-//W3C//DTD SVG 1.1//EN" "http://www.w3.org/Graphics/SVG/1.1/DTD/svg11.dtd">
<svg version="1.1" id="Слой_1" xmlns="http://www.w3.org/2000/svg" xmlns:xlink="http://www.w3.org/1999/xlink" x="0px" y="0px"
	 width="50px" height="50px" viewBox="0 0 50 50" enable-background="new 0 0 50 50" xml:space="preserve">
<path d="M1.29,18.914"/>
<path d="M42.321,34.125"/>
<path fill="#FFFFFF" d="M5.623-3.562h38.755"/>
<path stroke="#000000" stroke-miterlimit="10" d="M27.062,15.125"/>
<g>
	<g>
		<path fill="#FFFFFF" d="M46.723,29.714c-6.083-6.042-12.167-12.083-18.25-18.125c-4.579-4.547-11.651,2.522-7.071,7.071
			c6.083,6.042,12.167,12.083,18.25,18.125C44.231,41.333,51.303,34.263,46.723,29.714L46.723,29.714z"/>
	</g>
</g>
<g>
	<g>
		<path fill="#FFFFFF" d="M21.402,11.464C15.36,17.548,9.319,23.631,3.277,29.714c-4.547,4.579,2.522,11.651,7.071,7.071
			c6.042-6.083,12.083-12.167,18.125-18.25C33.02,13.957,25.951,6.884,21.402,11.464C15.36,17.548,9.319,23.631,3.277,29.714
			c-4.547,4.579,2.522,11.651,7.071,7.071c6.042-6.083,12.083-12.167,18.125-18.25C33.02,13.957,25.951,6.884,21.402,11.464z"/>
	</g>
</g>
</svg>
