<?xml version="1.0" encoding="utf-8"?>
<!-- Generator: Adobe Illustrator 17.0.0, SVG Export Plug-In . SVG Version: 6.00 Build 0)  -->
<!DOCTYPE svg PUBLIC "-//W3C//DTD SVG 1.1//EN" "http://www.w3.org/Graphics/SVG/1.1/DTD/svg11.dtd">
<svg version="1.1" id="Слой_1" xmlns="http://www.w3.org/2000/svg" xmlns:xlink="http://www.w3.org/1999/xlink" x="0px" y="0px"
	 width="50px" height="50px" viewBox="0 0 50 50" enable-background="new 0 0 50 50" xml:space="preserve">
<path fill="#FFFFFF" d="M5.623-3.562h38.755"/>
<path d="M28.84,10.76"/>
<path d="M18.5,38.65"/>
<path stroke="#000000" stroke-miterlimit="10" d="M31.415,28.279"/>
<g>
	<g>
		<path fill="#4792CA" d="M22.63,42.775c4.107-4.135,8.214-8.27,12.32-12.405c4.547-4.579-2.522-11.651-7.071-7.071
			c-4.107,4.135-8.214,8.27-12.32,12.405C11.012,40.283,18.082,47.355,22.63,42.775L22.63,42.775z"/>
	</g>
</g>
<g>
	<g>
		<path fill="#4792CA" d="M35.036,23.299c-4.135-4.107-8.27-8.214-12.405-12.32c-4.579-4.547-11.651,2.522-7.071,7.071
			c4.135,4.107,8.27,8.214,12.405,12.32C32.543,34.917,39.616,27.848,35.036,23.299c-4.135-4.107-8.27-8.214-12.405-12.32
			c-4.579-4.547-11.651,2.522-7.071,7.071c4.135,4.107,8.27,8.214,12.405,12.32C32.543,34.917,39.616,27.848,35.036,23.299z"/>
	</g>
</g>
</svg>
