<svg xmlns="http://www.w3.org/2000/svg" viewBox="0 0 480.097 480.097"><g fill="#020202"><path d="M206.76 332.99H39.224c-3.894 0-7.065-3.173-7.065-7.067V53.353c0-3.893 3.172-7.065 7.065-7.065h401.63c3.896 0 7.066 3.172 7.066 7.065v59.696c11.764 1.388 22.786 5.243 32.16 11.58V53.353c0-21.63-17.602-39.225-39.225-39.225H39.225C17.602 14.128 0 31.722 0 53.353v272.57c0 21.63 17.602 39.226 39.225 39.226h134.62v52.58h-21.23c-13.315 0-24.12 10.796-24.12 24.12 0 13.324 10.805 24.12 24.12 24.12h67.71c-8.462-11.902-13.565-26.35-13.565-42.037V332.99z"/><path d="M341.74 441.645v-34.742h-70.663V185c0-4.682 3.8-8.49 8.48-8.49h159.886c4.68 0 8.478 3.808 8.478 8.49v68.675h12.047c7.364 0 14.18 2.127 20.113 5.597V185c0-22.418-18.23-40.65-40.638-40.65H279.556c-22.407 0-40.638 18.232-40.638 40.65V423.93c0 22.417 18.23 40.647 40.638 40.647h69.438c-4.428-6.36-7.255-15.22-7.255-22.935z"/><path d="M459.967 273.775H381.97c-11.103 0-20.13 9.037-20.13 20.138v147.732c0 11.1 9.027 20.13 20.13 20.13h77.997c11.102 0 20.13-9.03 20.13-20.13V293.912c0-11.1-9.03-20.137-20.13-20.137zm-74.01 24.12h70.02v127.702h-70.02V297.894zm35.02 154.098c-2.215 0-4.193-.896-5.7-2.277-1.713-1.555-2.812-3.74-2.812-6.228 0-4.694 3.8-8.495 8.512-8.495 4.68 0 8.48 3.8 8.48 8.495 0 2.49-1.1 4.672-2.796 6.228-1.508 1.382-3.486 2.277-5.683 2.277z"/></g></svg>