<svg xmlns="http://www.w3.org/2000/svg" viewBox="0 0 366.204 366.204"><path d="M159.933 159.67l17.94 23c-1.366 2.833-2.576 5.756-3.62 8.742l-28.948 3.58c-2.757.34-4.828 2.682-4.828 5.46v37.2c0 2.777 2.07 5.12 4.828 5.46l28.95 3.577c1.042 2.983 2.253 5.904 3.618 8.736l-17.94 23c-1.707 2.19-1.516 5.31.448 7.274l26.305 26.313c1.965 1.965 5.086 2.156 7.277.447l22.998-17.944c2.828 1.363 5.75 2.572 8.738 3.616l3.576 28.953c.34 2.758 2.684 4.828 5.46 4.828h37.204c2.777 0 5.12-2.07 5.46-4.828l3.577-28.953c2.986-1.043 5.908-2.252 8.74-3.617l23.006 17.945c2.19 1.71 5.312 1.518 7.276-.448l26.3-26.31c1.964-1.966 2.155-5.085.446-7.275l-17.938-22.997c1.367-2.832 2.578-5.754 3.62-8.74l28.95-3.576c2.758-.34 4.828-2.684 4.828-5.46v-37.2c0-2.78-2.07-5.12-4.828-5.462l-28.955-3.58c-1.046-2.988-2.255-5.91-3.618-8.74l17.94-23c1.708-2.19 1.517-5.313-.448-7.276L319.99 126.1c-1.964-1.964-5.085-2.155-7.274-.448l-23 17.933c-2.83-1.364-5.752-2.574-8.74-3.618l-3.576-28.945c-.342-2.757-2.684-4.828-5.46-4.828h-37.204c-2.777 0-5.12 2.07-5.46 4.83l-3.577 28.944c-2.99 1.044-5.91 2.253-8.74 3.617l-23-17.938c-2.188-1.71-5.31-1.517-7.274.447l-26.303 26.3c-1.966 1.965-2.158 5.086-.45 7.277zm31.094-22.354l21.925 17.1c1.72 1.342 4.07 1.54 5.99.508 4.217-2.27 8.72-4.133 13.38-5.54 2.085-.63 3.603-2.432 3.87-4.594l3.408-27.59h27.473l3.41 27.59c.266 2.163 1.785 3.964 3.87 4.593 4.655 1.406 9.155 3.27 13.38 5.54 1.92 1.034 4.27.835 5.99-.506l21.924-17.095 19.426 19.416-17.102 21.922c-1.34 1.72-1.54 4.068-.507 5.99 2.268 4.22 4.133 8.725 5.54 13.387.632 2.084 2.433 3.602 4.595 3.87l27.6 3.41v27.47l-27.594 3.408c-2.162.268-3.963 1.785-4.594 3.872-1.402 4.65-3.27 9.15-5.545 13.374-1.035 1.923-.836 4.274.506 5.995l17.105 21.925-19.422 19.43-21.93-17.104c-1.72-1.342-4.068-1.54-5.99-.508-4.225 2.27-8.727 4.135-13.38 5.54-2.085.628-3.604 2.43-3.87 4.593l-3.41 27.6H239.6l-3.408-27.6c-.268-2.16-1.785-3.963-3.87-4.593-4.66-1.407-9.163-3.27-13.38-5.54-1.922-1.032-4.27-.833-5.992.51l-21.922 17.104-19.425-19.43 17.1-21.925c1.34-1.72 1.54-4.068.51-5.99-2.275-4.23-4.14-8.73-5.543-13.38-.63-2.085-2.43-3.603-4.593-3.87l-27.594-3.408v-27.47l27.595-3.41c2.162-.27 3.963-1.786 4.593-3.872 1.406-4.653 3.27-9.156 5.543-13.386 1.03-1.922.832-4.27-.508-5.99l-17.1-21.922 19.422-19.422z"/><path d="M253.337 263.69c24.61 0 44.633-20.022 44.633-44.633 0-24.614-20.022-44.64-44.633-44.64-24.61 0-44.633 20.025-44.633 44.64 0 24.61 20.02 44.633 44.633 44.633zm0-78.266c18.54 0 33.627 15.088 33.627 33.634 0 18.542-15.086 33.627-33.627 33.627-18.543 0-33.627-15.085-33.627-33.627 0-18.546 15.084-33.634 33.627-33.634zM14.886 76.62l12.932 16.582c-.775 1.665-1.48 3.372-2.116 5.115L4.827 100.9C2.07 101.242 0 103.584 0 106.36v27.9c0 2.777 2.07 5.12 4.83 5.46l20.87 2.578c.635 1.74 1.342 3.448 2.118 5.115l-12.932 16.58c-1.708 2.19-1.517 5.31.447 7.273L35.058 191c1.964 1.965 5.084 2.157 7.276.45l16.585-12.934c1.662.773 3.37 1.48 5.11 2.112l2.584 20.874c.34 2.757 2.683 4.827 5.46 4.827H99.97c2.778 0 5.12-2.07 5.46-4.828l2.583-20.873c1.74-.633 3.45-1.34 5.118-2.115l16.58 12.933c2.19 1.71 5.313 1.517 7.276-.448l19.725-19.734c1.964-1.965 2.156-5.084.448-7.274l-12.93-16.577c.78-1.674 1.488-3.383 2.12-5.118l20.87-2.577c2.756-.34 4.827-2.683 4.827-5.46v-27.9c0-2.776-2.07-5.118-4.827-5.46l-20.875-2.583c-.635-1.743-1.34-3.45-2.116-5.115l12.93-16.582c1.71-2.19 1.517-5.31-.447-7.274L136.985 49.62c-1.965-1.966-5.085-2.157-7.276-.45l-16.58 12.933c-1.672-.78-3.382-1.487-5.118-2.12L105.43 39.12c-.34-2.757-2.683-4.827-5.46-4.827H72.075c-2.778 0-5.12 2.07-5.46 4.828L64.03 59.985c-1.738.633-3.445 1.34-5.113 2.117L42.333 49.17c-2.19-1.707-5.31-1.515-7.274.45L15.334 69.345c-1.964 1.963-2.156 5.083-.448 7.275zm24.517-15.78l15.49 12.078c1.722 1.343 4.075 1.54 5.996.504 3.078-1.66 6.363-3.02 9.765-4.045 2.087-.63 3.606-2.43 3.874-4.594l2.41-19.487H95.11l2.412 19.487c.268 2.165 1.79 3.967 3.877 4.595 3.386 1.018 6.675 2.38 9.776 4.047 1.92 1.033 4.27.835 5.99-.507l15.483-12.076 12.846 12.846-12.077 15.486c-1.342 1.72-1.54 4.072-.506 5.993 1.65 3.064 3.012 6.354 4.05 9.78.63 2.083 2.43 3.6 4.59 3.866l19.492 2.412v18.17l-19.486 2.405c-2.164.268-3.967 1.787-4.595 3.875-1.018 3.383-2.38 6.672-4.05 9.777-1.034 1.92-.836 4.27.506 5.99l12.077 15.483-12.847 12.853-15.48-12.076c-1.722-1.342-4.072-1.54-5.993-.507-3.077 1.655-6.366 3.015-9.775 4.04-2.09.628-3.61 2.43-3.877 4.594l-2.41 19.495H76.94l-2.412-19.496c-.268-2.163-1.787-3.965-3.874-4.594-3.425-1.032-6.71-2.39-9.765-4.038-1.923-1.037-4.276-.84-5.998.503l-15.49 12.08-12.848-12.855 12.077-15.482c1.343-1.72 1.542-4.07.508-5.99-1.656-3.08-3.02-6.37-4.05-9.784-.63-2.086-2.43-3.604-4.593-3.87l-19.49-2.406v-18.17l19.49-2.41c2.16-.27 3.96-1.784 4.592-3.867 1.038-3.426 2.4-6.717 4.05-9.78 1.035-1.92.837-4.272-.505-5.993L26.556 73.687 39.403 60.84z"/><path d="M86.024 155.164c19.22 0 34.854-15.635 34.854-34.852 0-19.218-15.635-34.85-34.854-34.85-19.216 0-34.85 15.633-34.85 34.85 0 19.217 15.635 34.852 34.85 34.852zm0-58.697c13.15 0 23.848 10.697 23.848 23.846 0 13.15-10.698 23.846-23.848 23.846-13.147 0-23.844-10.698-23.844-23.847 0-13.15 10.697-23.846 23.844-23.846z"/></svg>