<svg xmlns="http://www.w3.org/2000/svg" viewBox="0 0 19.028 19.028"><path fill="#e74c3c" d="M7.364 15.92H6.017c-.378 0-.49-.11-1.16-1.77l-.333-.134c-1.41.637-1.583.637-1.688.637h-.214l-.17-.154-.953-.935c-.278-.274-.278-.42.45-2.07l-.13-.31c-1.704-.61-1.82-.72-1.82-1.11v-1.32c0-.385.104-.486 1.812-1.148l.13-.31c-.737-1.555-.774-1.762-.48-2.047l1.104-1.082.232-.004c.098 0 .276 0 1.71.603l.332-.134c.623-1.664.734-1.777 1.12-1.777H7.31c.382 0 .484.102 1.16 1.77l.33.134c1.408-.637 1.583-.637 1.69-.637h.213l.17.153.957.932c.276.275.276.42-.45 2.072l.13.31c1.714.615 1.818.716 1.818 1.11v1.32c0 .385-.104.486-1.812 1.148l-.13.31c.762 1.608.765 1.768.486 2.045l-1.11 1.086-.233.003c-.098 0-.276 0-1.71-.604l-.33.135c-.625 1.663-.737 1.776-1.123 1.776zm-1.047-1.057h.74c.13-.298.345-.84.52-1.307l.08-.218 1.17-.475.203.087c.48.203 1.044.433 1.355.544l.514-.502c-.124-.303-.36-.83-.574-1.272l-.103-.215.49-1.16.21-.082c.48-.186 1.04-.413 1.343-.55v-.697c-.305-.128-.858-.338-1.334-.506l-.22-.078-.49-1.162.094-.21c.204-.46.433-1.002.55-1.31l-.515-.503c-.307.12-.855.357-1.32.57l-.206.093-1.17-.472-.084-.208c-.19-.472-.422-1.02-.563-1.316H6.27c-.133.298-.346.84-.52 1.307l-.08.218-1.17.474-.2-.086c-.48-.204-1.048-.432-1.36-.543l-.513.502c.123.303.36.828.573 1.273l.102.214-.49 1.16-.21.08c-.48.187-1.04.414-1.342.55v.698c.305.13.86.338 1.335.508l.22.078.487 1.16-.092.208c-.204.46-.433 1.003-.55 1.312l.514.502c.308-.12.856-.356 1.32-.568l.207-.095 1.17.474.085.208c.19.47.422 1.02.562 1.315zm.345-3.022c-1.376 0-2.495-1.1-2.495-2.452 0-1.352 1.12-2.452 2.495-2.452s2.496 1.1 2.496 2.452c0 1.354-1.12 2.453-2.496 2.453zm0-3.846c-.792 0-1.437.625-1.437 1.394 0 .77.645 1.395 1.437 1.395.793 0 1.438-.625 1.438-1.395 0-.768-.645-1.394-1.438-1.394z"/><path fill="#e74c3c" d="M15.143 16.17h-.073l-.665-.222c-.305-.103-.334-.302-.37-1.082-.2.02-.49.05-.64.05-.282 0-.41-.14-.466-.26l-.277-.57c-.13-.288-.012-.45.5-1.027l-.002-.01c-.576-.47-.73-.62-.63-.928l.205-.613c.103-.302.317-.336 1.064-.38l.006-.008c-.08-.766-.078-.967.2-1.114l.668-.34h.108c.156 0 .217 0 .814.537.49-.618.583-.67.793-.67h.073l.663.222c.305.1.336.317.37 1.082.202-.023.492-.053.64-.053.285 0 .41.145.467.266l.274.566c.142.274.023.438-.497 1.027v.01c.567.46.735.627.627.937l-.202.604c-.09.3-.307.334-1.063.38l-.006.006c.077.75.078.97-.21 1.117l-.658.34h-.11c-.153 0-.218 0-.815-.54-.474.6-.57.67-.79.67zm-.285-.736l.085.028c.11-.13.255-.31.378-.467l.134-.17.84-.06.155.14c.146.136.318.288.448.398l.094-.048c-.012-.17-.033-.404-.055-.604l-.02-.207.545-.64.207-.013c.2-.012.435-.028.604-.044l.038-.112c-.127-.11-.3-.256-.454-.38l-.165-.134-.052-.836.135-.15c.14-.158.297-.342.407-.477l-.045-.094c-.187.016-.424.042-.58.06l-.216.028-.63-.558-.01-.206c-.01-.205-.022-.44-.036-.615l-.087-.028c-.11.13-.256.31-.38.467l-.132.17-.838.06-.154-.14c-.147-.136-.32-.288-.45-.398l-.092.047c.013.17.033.404.055.605l.02.207-.543.64-.208.01c-.2.013-.437.03-.606.046l-.038.11c.127.112.302.257.455.38l.167.135.05.84-.133.15c-.14.157-.3.34-.41.475l.045.093c.188-.016.425-.042.58-.06l.216-.028.633.56.01.205c.007.205.022.443.035.617zm.89-1.204c-.146 0-.288-.023-.426-.07-.71-.238-1.092-1.02-.85-1.74.19-.564.713-.943 1.302-.943.145 0 .287.023.424.068.71.238 1.092 1.02.85 1.74-.19.565-.712.945-1.3.945zm.027-1.872c-.21 0-.397.138-.466.343-.088.26.044.54.293.625.245.082.525-.07.61-.32.087-.26-.045-.54-.294-.624-.048-.014-.097-.022-.145-.022z"/></svg>