<svg xmlns="http://www.w3.org/2000/svg" viewBox="0 0 472.3 472.3"><g fill="#e74c3c"><path d="M402.708 61.688l-89.88-.022c-2.62 0-4.988 1.584-5.986 4.005-1.007 2.422-.455 5.204 1.398 7.065l33.84 33.838L107.36 342.54l-33.81-33.81c-1.852-1.85-4.642-2.404-7.063-1.405-2.42 1.006-3.997 3.368-3.997 5.99l-.008 89.86c0 3.583 2.896 6.48 6.48 6.48l89.878.023c2.622 0 4.99-1.582 5.987-4.003 1.008-2.423.455-5.205-1.398-7.066l-33.81-33.81L308.447 184.67l55.862-55.864 33.808 33.81c1.853 1.852 4.643 2.405 7.064 1.405 2.42-1.007 3.997-3.367 3.997-5.988l.007-89.863c0-3.583-2.897-6.482-6.48-6.482z"/><path d="M435.28 0H37.02C16.574 0 0 16.573 0 37.022v398.256c0 20.45 16.574 37.022 37.022 37.022H435.28c20.447 0 37.02-16.573 37.02-37.022V37.022C472.3 16.572 455.728 0 435.28 0zm5.533 435.278c0 3.052-2.482 5.535-5.534 5.535H37.02c-3.052 0-5.535-2.483-5.535-5.535V37.022c0-3.053 2.483-5.536 5.535-5.536H435.28c3.05 0 5.534 2.483 5.534 5.536v398.256z"/></g></svg>