<svg xmlns="http://www.w3.org/2000/svg" width="22.002" height="31.001" viewBox="0 0 22.002 31.001"><path fill="#e74c3c" d="M21.89 17.298l-2.508-3.774c-.12-.18-.318-.287-.53-.287-.214 0-.413.107-.532.287l-2.51 3.774c-.133.2-.146.46-.035.674.11.214.33.348.567.348h1.238c-.534 2.247-2.748 4.047-5.083 4.612V8.468h1.995c.55 0 .997-.456.997-1.018 0-.563-.448-1.018-.998-1.018h-1.028c.718-.68 1.176-1.64 1.176-2.718C14.64 1.666 13.007 0 11 0 8.994 0 7.36 1.666 7.36 3.714c0 1.076.458 2.038 1.177 2.718H7.51c-.55 0-.997.455-.997 1.018s.447 1.02.997 1.02h1.995v14.464c-2.335-.565-4.55-2.365-5.084-4.612h1.24c.238 0 .456-.134.567-.348.11-.214.097-.473-.036-.674l-2.508-3.774c-.12-.18-.318-.287-.53-.287-.214 0-.413.106-.532.286L.11 17.3c-.132.2-.146.46-.035.674.11.214.33.348.567.348h1.35c.502 3.494 3.455 7.06 6.78 8.238l-.25.31c-.177.22-.193.536-.038.774l1.98 3.062c.12.184.32.294.537.294.217 0 .418-.11.536-.294l1.98-3.062c.156-.24.14-.553-.037-.774l-.25-.312c3.325-1.18 6.278-4.743 6.78-8.238h1.35c.238 0 .456-.134.567-.348.11-.214.097-.473-.036-.674zM11 2.036c.908 0 1.646.753 1.646 1.678 0 .927-.738 1.68-1.645 1.68-.906 0-1.643-.753-1.643-1.68 0-.925.737-1.678 1.644-1.678z"/></svg>