<svg xmlns="http://www.w3.org/2000/svg" viewBox="0 0 654.758 654.758"><path d="M443.398 75.36l17.515-29.438c3.974-7.14 12.732-9.567 19.87-5.593 7.138 3.973 9.567 12.73 5.593 19.87L468.86 89.635c-2.354 4.784-7.947 7.14-12.73 7.14-2.356 0-4.785-.81-7.14-1.62-7.21-3.9-9.566-12.585-5.592-19.797zM185.896 89.71c2.355 4.784 7.948 7.14 12.732 7.14 2.355 0 4.784-.81 7.14-1.62 7.138-3.974 9.566-12.732 5.592-19.87l-17.515-29.437c-3.974-7.14-12.732-9.567-19.87-5.593s-9.567 12.732-5.593 19.87l17.514 29.51zM327.342 62.7c7.948 0 14.277-6.328 14.277-14.276V14.277C341.62 6.33 335.29 0 327.34 0s-14.277 6.33-14.277 14.277v34.147c-.81 7.875 5.52 14.277 14.277 14.277zM69.84 290.767H35.693c-7.948 0-14.277 6.33-14.277 14.277 0 7.948 6.33 14.277 14.277 14.277H69.84c7.948 0 14.277-6.33 14.277-14.277s-6.33-14.277-14.277-14.277zm549.225 0h-34.147c-7.948 0-14.277 6.33-14.277 14.277 0 7.948 6.33 14.277 14.278 14.277h34.147c7.948 0 14.277-6.33 14.277-14.277s-6.33-14.277-14.277-14.277zm-26.273-138.28c-3.974-7.14-12.732-9.568-19.87-5.594l-29.437 17.515c-7.138 3.974-9.567 12.732-5.593 19.87 2.355 4.784 7.948 7.14 12.732 7.14 2.355 0 4.784-.81 7.138-1.62l29.437-17.515c7.21-3.9 9.566-12.66 5.592-19.797zm-77.86 151.012c0 32.602-8.76 64.394-24.655 93.022-.81 2.355-1.62 3.974-3.165 5.593l-1.62 2.355c-6.328 9.567-12.73 19.06-20.68 27.01-27.817 38.93-42.094 72.34-41.358 93.757v.81c0 1.62.81 3.974.81 6.33v68.367c0 30.173-24.654 54.017-54.017 54.017h-88.164c-30.173 0-54.017-24.655-54.017-54.018v-68.368-3.974-3.164c.81-20.68-13.54-53.28-39.74-91.403-8.758-9.567-17.515-19.87-23.844-31.792-.81-1.618-1.62-2.354-2.355-3.973-16.706-28.628-25.463-61.23-25.463-93.758 0-104.135 85.074-189.135 189.134-189.135 104.06-.81 189.133 84.19 189.133 188.323zM394.9 540.32H257.43v27.01H394.9v-27.01zm0 62.04v-5.594H257.43v5.593c1.618 12.73 11.92 22.224 24.653 22.224h88.238c12.658 0 23.035-9.493 24.58-22.225zm90.593-298.862c0-88.238-71.532-159.77-159.77-159.77s-159.77 71.532-159.77 159.77c0 28.628 7.947 56.446 22.224 81.1v.81c6.33 10.302 13.54 19.87 21.49 28.627l1.618 1.62c26.2 37.384 41.36 69.176 45.333 95.376H395.71c4.784-32.6 27.01-69.912 46.88-97.73 0-.81.81-.81 1.618-1.62 7.14-7.14 13.54-15.896 18.25-24.654 0-.81.81-.81.81-1.62s.81-.808.81-1.618c14.277-23.844 21.415-51.662 21.415-80.29zM111.2 164.408L81.76 146.89c-7.14-3.974-15.896-1.62-19.87 5.593-3.974 7.14-1.62 15.896 5.593 19.87l29.437 17.515c2.355 1.62 4.784 1.62 7.14 1.62 4.783 0 10.302-2.356 12.73-7.14 3.9-7.21 1.546-15.97-5.593-19.943z" fill="#e74c3c"/></svg>