<svg xmlns="http://www.w3.org/2000/svg" width="72.555" height="62.067" viewBox="0 0 72.555 62.067"><path fill="#FFF" stroke="#FFF" stroke-width="2" stroke-miterlimit="10" d="M6.63 1c3.11 0 5.63 3.07 5.63 6.86v46.28c0 3.79-2.52 6.86-5.63 6.86S1 57.93 1 54.14V7.86C1 4.07 3.52 1 6.63 1z"/><path fill="none" d="M83.773 47.723c3.666 0 6.64 2.972 6.64 6.64 0 3.665-2.973 6.638-6.64 6.638H7.64C3.97 61 1 58.03 1 54.36c0-3.665 2.972-6.638 6.64-6.638h76.133z"/><path fill="#FFF" stroke="#FFF" stroke-width="2" stroke-miterlimit="10" d="M47.37 61c3.156 0 5.714-2.553 5.714-5.702V15.105c0-3.15-2.558-5.702-5.714-5.702-3.156 0-5.714 2.553-5.714 5.702v40.193c0 3.15 2.558 5.702 5.714 5.702z"/><path fill="#FFF" stroke="#FFF" stroke-width="2" stroke-miterlimit="10" d="M66.425 47.723c2.898 0 5.247 2.972 5.247 6.64 0 3.665-2.35 6.638-5.247 6.638H6.247C3.35 61 1 58.03 1 54.36c0-3.665 2.35-6.638 5.247-6.638h60.178z"/><path fill="#FFF" stroke="#FFF" stroke-width="2" stroke-miterlimit="10" d="M32.945 31.42c4.295 0 7.777 4.844 7.777 10.82v7.942c0 5.975-3.482 10.82-7.777 10.82s-7.777-4.845-7.777-10.82V42.24c0-5.976 3.482-10.82 7.777-10.82zM18.286 34.11c3.25 0 5.882 3.534 5.882 7.894v8.572c0 4.36-2.634 7.895-5.882 7.895-3.25 0-5.882-3.534-5.882-7.894v-8.572c0-4.36 2.633-7.895 5.882-7.895z"/></svg>