<svg xmlns="http://www.w3.org/2000/svg" viewBox="0 0 384.219 384.219"><path d="M332.683 224.942l-20.98-25.567c-1.776-2.167-4.29-3.41-6.894-3.41-2.606 0-5.12 1.243-6.897 3.41l-20.98 25.567c-2.654 3.235-2.1 5.8-1.533 6.997.566 1.197 2.142 3.278 6.328 3.278h6c-2.706 40-34.62 70.397-77.62 77.156V147.22h38.525c4.238 4.08 9.836 6.314 15.886 6.314 12.84 0 23.29-10.437 23.29-23.265s-10.45-23.266-23.29-23.266c-6.103 0-11.7 2.198-15.885 6.214h-38.527V81.526c15-6.952 24.786-22.01 24.786-38.825 0-23.545-19.22-42.7-42.767-42.7-23.545 0-42.82 19.155-42.82 42.7 0 16.815 9.802 31.874 24.802 38.826v31.692h-38.65c-4.186-4.015-9.783-6.213-15.885-6.213-12.842 0-23.29 10.453-23.29 23.302 0 12.804 10.448 23.22 23.29 23.22 6.052 0 11.65-2.23 15.886-6.31h38.65v165.154c-43-6.763-75-37.152-77.704-77.152h6.083c4.185 0 5.76-2.08 6.327-3.28.566-1.197 1.12-3.725-1.534-6.96l-20.98-25.585c-1.776-2.167-4.29-3.418-6.895-3.418-2.604 0-5.118 1.238-6.895 3.405l-20.978 25.565c-2.655 3.235-2.1 5.8-1.534 6.996.567 1.2 2.143 3.28 6.33 3.28h7.386c1.572 31 16.726 61.846 41.987 85.94 20.26 19.322 44.406 31.953 68.406 36.22v13.514c0 7.468 6.245 13.325 13.713 13.325h8.477c7.468 0 13.81-5.858 13.81-13.326v-13.517c24-4.267 48.063-16.895 68.33-36.217 25.285-24.104 40.404-54.94 41.977-85.94h7.472c4.185 0 5.76-2.08 6.327-3.28.567-1.198 1.12-3.762-1.534-6.998zM169.848 42.702c0-12.25 9.965-22.214 22.213-22.214s22.214 9.965 22.214 22.213c0 12.25-9.965 22.215-22.213 22.215S169.85 54.95 169.85 42.7z" fill="#e74c3c"/></svg>