<svg xmlns="http://www.w3.org/2000/svg" width="442.833" height="442.833" viewBox="0 0 442.833 442.833"><path d="M361.062 18.19H81.772C36.682 18.19 0 54.87 0 99.96v170.042c0 45.092 36.683 81.773 81.772 81.773h192.803l69.686 69.676c2.085 2.09 4.874 3.194 7.712 3.194 1.402 0 2.822-.268 4.168-.828 4.076-1.684 6.732-5.666 6.732-10.072v-61.99c44.256-.97 79.96-37.27 79.96-81.752V99.962c0-45.093-36.68-81.773-81.77-81.773zM421.028 270c0 33.062-26.9 59.968-59.968 59.968h-9.094c-6.02 0-10.9 4.877-10.9 10.902v46.553l-54.268-54.262c-2.043-2.042-4.817-3.192-7.707-3.192H81.773c-33.065 0-59.967-26.906-59.967-59.967V99.96c0-33.07 26.902-59.966 59.967-59.966h279.29c33.065 0 59.967 26.896 59.967 59.967V270z"/><path d="M119.2 161.248c-13.55 0-24.532 10.988-24.532 24.532 0 13.554 10.982 24.532 24.53 24.532 13.544 0 24.533-10.98 24.533-24.532 0-13.544-10.988-24.532-24.53-24.532zM221.415 161.248c-13.55 0-24.532 10.988-24.532 24.532 0 13.554 10.983 24.532 24.532 24.532 13.543 0 24.532-10.98 24.532-24.532 0-13.544-10.99-24.532-24.532-24.532zM323.632 161.248c-13.55 0-24.533 10.988-24.533 24.532 0 13.554 10.983 24.532 24.532 24.532 13.543 0 24.53-10.98 24.53-24.532 0-13.544-10.987-24.532-24.53-24.532z"/></svg>